<svg xmlns="http://www.w3.org/2000/svg" viewBox="0 0 320 160">
  <defs>
    <linearGradient id="c1" x1="0" x2="1">
      <stop offset="0" stop-color="#cb1024"/>
      <stop offset="1" stop-color="#ff4d5d"/>
    </linearGradient>
  </defs>
  <rect width="320" height="160" fill="none"/>
  <path d="M46 46h228c17 0 30 13 30 30v8c0 17-13 30-30 30H46c-17 0-30-13-30-30v-8c0-17 13-30 30-30z" fill="#171f2d"/>
  <path d="M46 58h228c10 0 18 8 18 18v8c0 10-8 18-18 18H46c-10 0-18-8-18-18v-8c0-10 8-18 18-18z" fill="#101721"/>
  <g fill="#d9e0ea">
    <rect x="54" y="66" width="18" height="28" rx="6"/>
    <rect x="82" y="66" width="18" height="28" rx="6"/>
    <rect x="110" y="66" width="18" height="28" rx="6"/>
    <rect x="138" y="66" width="18" height="28" rx="6"/>
    <rect x="166" y="66" width="18" height="28" rx="6"/>
    <rect x="194" y="66" width="18" height="28" rx="6"/>
    <rect x="222" y="66" width="18" height="28" rx="6"/>
    <rect x="250" y="66" width="18" height="28" rx="6"/>
  </g>
  <path d="M65 49h191" stroke="url(#c1)" stroke-width="4" stroke-linecap="round" opacity=".85"/>
</svg>